<svg width="108" height="26" viewBox="0 0 108 26" fill="none" xmlns="http://www.w3.org/2000/svg">
<path fill-rule="evenodd" clip-rule="evenodd" d="M5.61624 23.2937C7.12694 23.4968 9.12917 23.5 12 23.5C14.8708 23.5 16.8731 23.4968 18.3838 23.2937C19.8513 23.0964 20.6285 22.7355 21.182 22.182C21.7355 21.6285 22.0964 20.8513 22.2937 19.3838C22.4968 17.8731 22.5 15.8708 22.5 13C22.5 10.1292 22.4968 8.12694 22.2937 6.61624C22.0964 5.14869 21.7355 4.37155 21.182 3.81802C20.6285 3.26449 19.8513 2.9036 18.3838 2.70629C16.8731 2.50319 14.8708 2.5 12 2.5C9.12917 2.5 7.12694 2.50319 5.61624 2.70629C4.14869 2.9036 3.37155 3.26449 2.81802 3.81802C2.26449 4.37155 1.9036 5.14869 1.70629 6.61624C1.50319 8.12694 1.5 10.1292 1.5 13C1.5 15.8708 1.50319 17.8731 1.70629 19.3838C1.9036 20.8513 2.26449 21.6285 2.81802 22.182C3.37155 22.7355 4.14869 23.0964 5.61624 23.2937ZM1.75736 2.75736C0 4.51472 0 7.34315 0 13C0 18.6569 0 21.4853 1.75736 23.2426C3.51472 25 6.34315 25 12 25C17.6569 25 20.4853 25 22.2426 23.2426C24 21.4853 24 18.6569 24 13C24 7.34315 24 4.51472 22.2426 2.75736C20.4853 1 17.6569 1 12 1C6.34315 1 3.51472 1 1.75736 2.75736Z" fill="#FF3C48"/>
<circle cx="6" cy="7" r="2" fill="#FF3C48"/>
<circle cx="12" cy="7" r="2" fill="#007CD7"/>
<circle cx="18" cy="7" r="2" fill="#FFB800"/>
<circle cx="6" cy="13" r="2" fill="#FF3C48"/>
<circle cx="12" cy="13" r="2" fill="#007CD7"/>
<circle cx="18" cy="13" r="2" fill="#FFB800"/>
<circle cx="6" cy="19" r="2" fill="#FF3C48"/>
<circle cx="12" cy="19" r="2" fill="#007CD7"/>
<path d="M98.7131 21.28H96.3591V10.478H98.5151L98.7351 11.996C99.0871 11.4093 99.5711 10.9547 100.187 10.632C100.818 10.3093 101.514 10.148 102.277 10.148C103.656 10.148 104.682 10.5513 105.357 11.358C106.046 12.1647 106.391 13.2573 106.391 14.636V21.28H104.037V15.186C104.037 14.2033 103.81 13.4773 103.355 13.008C102.915 12.5387 102.321 12.304 101.573 12.304C100.678 12.304 99.9744 12.5973 99.4611 13.184C98.9624 13.756 98.7131 14.526 98.7131 15.494V21.28Z" fill="#111111"/>
<path d="M88.0647 21.566C86.9207 21.566 86.0187 21.258 85.3587 20.642C84.7134 20.026 84.3907 19.2267 84.3907 18.244C84.3907 17.2467 84.7354 16.4547 85.4247 15.868C86.1287 15.2667 87.1187 14.9147 88.3947 14.812L91.7167 14.548V14.284C91.7167 13.7267 91.614 13.2867 91.4087 12.964C91.2034 12.6267 90.9247 12.3847 90.5727 12.238C90.2207 12.0913 89.81 12.018 89.3407 12.018C88.5047 12.018 87.8594 12.1867 87.4047 12.524C86.95 12.8613 86.7227 13.338 86.7227 13.954H84.6987C84.6987 13.1767 84.8894 12.5093 85.2707 11.952C85.6667 11.38 86.224 10.94 86.9427 10.632C87.6614 10.3093 88.4974 10.148 89.4507 10.148C90.3894 10.148 91.196 10.3167 91.8707 10.654C92.56 10.9767 93.088 11.468 93.4547 12.128C93.836 12.788 94.0267 13.6167 94.0267 14.614V21.28H91.9807L91.7607 19.608C91.5114 20.1947 91.0494 20.6713 90.3747 21.038C89.7 21.39 88.93 21.566 88.0647 21.566ZM88.8127 19.74C89.7074 19.74 90.4187 19.476 90.9467 18.948C91.4747 18.4053 91.7387 17.6793 91.7387 16.77V16.176L89.2307 16.396C88.3507 16.4693 87.72 16.66 87.3387 16.968C86.972 17.276 86.7887 17.6647 86.7887 18.134C86.7887 18.6767 86.9647 19.08 87.3167 19.344C87.6687 19.608 88.1674 19.74 88.8127 19.74Z" fill="#111111"/>
<path d="M82.4066 21.28H80.0306V5H82.4066V21.28Z" fill="#111111"/>
<path d="M67.0424 26V10.478H69.1984L69.3744 12.26C69.7117 11.5707 70.2177 11.05 70.8924 10.698C71.5817 10.3313 72.3444 10.148 73.1804 10.148C74.207 10.148 75.0944 10.3827 75.8424 10.852C76.605 11.3213 77.1917 11.9813 77.6024 12.832C78.0277 13.668 78.2404 14.6507 78.2404 15.78C78.2404 16.88 78.0424 17.87 77.6464 18.75C77.2504 19.6153 76.6784 20.3047 75.9304 20.818C75.1824 21.3167 74.273 21.566 73.2024 21.566C72.3517 21.566 71.589 21.4047 70.9144 21.082C70.2544 20.7447 69.7484 20.2753 69.3964 19.674V26H67.0424ZM69.4184 15.868C69.4184 16.5573 69.5504 17.1733 69.8144 17.716C70.0784 18.2587 70.4524 18.684 70.9364 18.992C71.4204 19.2853 71.9924 19.432 72.6524 19.432C73.327 19.432 73.899 19.278 74.3684 18.97C74.8377 18.662 75.197 18.244 75.4464 17.716C75.7104 17.1733 75.8424 16.5573 75.8424 15.868C75.8424 15.1787 75.7104 14.57 75.4464 14.042C75.197 13.4993 74.8377 13.0813 74.3684 12.788C73.899 12.48 73.327 12.326 72.6524 12.326C71.9924 12.326 71.4204 12.48 70.9364 12.788C70.4524 13.0813 70.0784 13.492 69.8144 14.02C69.5504 14.548 69.4184 15.164 69.4184 15.868Z" fill="#111111"/>
<path d="M62.22 10.478H64.596V21.28H62.418L62.198 19.74C61.89 20.2827 61.406 20.7227 60.746 21.06C60.1007 21.3973 59.3967 21.566 58.634 21.566C57.3874 21.566 56.4194 21.17 55.73 20.378C55.0407 19.586 54.696 18.53 54.696 17.21V10.456H57.072V16.396C57.072 17.4813 57.2847 18.2587 57.71 18.728C58.1354 19.1973 58.7367 19.432 59.514 19.432C60.4087 19.432 61.0834 19.1607 61.538 18.618C61.9927 18.0753 62.22 17.254 62.22 16.154V10.478Z" fill="#111111"/>
<path d="M46.5337 21.566C45.3897 21.566 44.4877 21.258 43.8277 20.642C43.1823 20.026 42.8597 19.2267 42.8597 18.244C42.8597 17.2467 43.2043 16.4547 43.8937 15.868C44.5977 15.2667 45.5877 14.9147 46.8637 14.812L50.1857 14.548V14.284C50.1857 13.7267 50.083 13.2867 49.8777 12.964C49.6723 12.6267 49.3937 12.3847 49.0417 12.238C48.6897 12.0913 48.279 12.018 47.8097 12.018C46.9737 12.018 46.3283 12.1867 45.8737 12.524C45.419 12.8613 45.1917 13.338 45.1917 13.954H43.1677C43.1677 13.1767 43.3583 12.5093 43.7397 11.952C44.1357 11.38 44.693 10.94 45.4117 10.632C46.1303 10.3093 46.9663 10.148 47.9197 10.148C48.8583 10.148 49.665 10.3167 50.3397 10.654C51.029 10.9767 51.557 11.468 51.9237 12.128C52.305 12.788 52.4957 13.6167 52.4957 14.614V21.28H50.4497L50.2297 19.608C49.9803 20.1947 49.5183 20.6713 48.8437 21.038C48.169 21.39 47.399 21.566 46.5337 21.566ZM47.2817 19.74C48.1763 19.74 48.8877 19.476 49.4157 18.948C49.9437 18.4053 50.2077 17.6793 50.2077 16.77V16.176L47.6997 16.396C46.8197 16.4693 46.189 16.66 45.8077 16.968C45.441 17.276 45.2577 17.6647 45.2577 18.134C45.2577 18.6767 45.4337 19.08 45.7857 19.344C46.1377 19.608 46.6363 19.74 47.2817 19.74Z" fill="#111111"/>
<path d="M32.486 5.28601V21.28H30V5.28601H32.486ZM36.314 14.35H31.738V12.216H36.138C36.974 12.216 37.612 12.0107 38.052 11.6C38.5067 11.1747 38.734 10.5733 38.734 9.79601C38.734 9.04801 38.4993 8.47601 38.03 8.08001C37.5607 7.68401 36.8933 7.48601 36.028 7.48601H31.518V5.28601H36.226C37.7953 5.28601 39.0273 5.66734 39.922 6.43001C40.8313 7.19268 41.286 8.23401 41.286 9.55401C41.286 10.5367 41.044 11.358 40.56 12.018C40.0907 12.6633 39.394 13.1327 38.47 13.426V13.14C39.482 13.3747 40.2447 13.822 40.758 14.482C41.286 15.1273 41.55 15.9633 41.55 16.99C41.55 17.87 41.3447 18.6327 40.934 19.278C40.5233 19.9233 39.9293 20.422 39.152 20.774C38.3893 21.1113 37.4653 21.28 36.38 21.28H31.518V19.08H36.314C37.1647 19.08 37.8247 18.8747 38.294 18.464C38.7633 18.0387 38.998 17.4447 38.998 16.682C38.998 15.934 38.7633 15.362 38.294 14.966C37.8247 14.5553 37.1647 14.35 36.314 14.35Z" fill="#111111"/>
</svg>
